<?xml version="1.0" encoding="UTF-8"?>
<svg id="_レイヤー_2" data-name="レイヤー 2" xmlns="http://www.w3.org/2000/svg" viewBox="0 0 406.98 374.98">
  <defs>
    <style>
      .cls-1 {
        fill: #eaeaea;
        stroke: #d4d4d4;
        stroke-miterlimit: 10;
        stroke-width: 2px;
      }
    </style>
  </defs>
  <g id="_レイヤー_1-2" data-name="レイヤー 1">
    <g>
      <path class="cls-1" d="M253.33,143.77c19.34-19.75,46.32-29.71,68.7-45.81,32.95-23.7,58.81-57.06,70.7-96.24.16-1.17,1.3-.71,2.01-.1,3.21,2.78,9.15,31.49,9.85,37.15,13.25,106.2-70.17,190.18-171.34,202.37l-1.1-2.04c1.79-2.91,4.03-5.75,4.88-9.15,3.52-13.96-6.45-15.39-8.05-26.57-2.91-20.33,10.53-45.51,24.35-59.62Z"/>
      <path class="cls-1" d="M58.06,75.8c23.09,23.34,47.77,34.01,74.57,50.93,25.06,15.82,51.34,47.74,44.86,79.69-1.26,6.19-7.5,9.01-7.84,17.21s3.16,10.9,6.06,17.51c-67.72-7.17-133.17-49.65-160.85-112.64C-3.1,87.65-3.02,43.56,11.72,1.67c.19-1.08,1.33-.67,2.01-.05,1.34,1.25,7.15,18.58,8.81,22.19,8.68,18.9,20.89,37.19,35.52,51.98Z"/>
      <path class="cls-1" d="M326.1,318.77c12.24,12.88,19.27,27.35,15.34,45.6-3.77,17.52-8.55,6.85-17.41.96-11.45-7.62-25.04-13.02-38.3-16.7-17.65-4.89-61.63-8.42-56.56-35.54,1.8-9.62,8.81-13.63,7.46-25.37-.38-3.27-4.39-7.62,1.53-7.62,3.73,0,12.31,2.57,16.57,3.53,25.87,5.8,52.82,15.62,71.37,35.14Z"/>
      <path class="cls-1" d="M174.37,328.8c-10.53,12.35-39.41,15.58-54.67,19.83-13.45,3.75-28.58,9.86-39.92,18.08-3.85,2.79-8.22,11.34-11.58,4.44s-3.77-18.87-2.24-26.25c8.26-39.78,69.48-60.04,104.75-64.27l.23,16.79c4.75,9.7,11.83,21.52,3.42,31.39Z"/>
    </g>
  </g>
</svg>